<svg width="29" height="30" viewBox="0 0 29 30" fill="none" xmlns="http://www.w3.org/2000/svg">
<g clip-path="url(#clip0_9_157)">
<path d="M18.8718 26.1383V23.649C18.8718 22.3285 18.3747 21.0622 17.4899 20.1285C16.6051 19.1948 15.4051 18.6702 14.1538 18.6702H5.89742C4.64614 18.6702 3.44612 19.1948 2.56133 20.1285C1.67654 21.0622 1.17947 22.3285 1.17947 23.649V26.1383" stroke="white" stroke-width="2" stroke-linecap="round" stroke-linejoin="round"/>
<path d="M10.0256 13.6915C12.6313 13.6915 14.7436 11.4624 14.7436 8.71276C14.7436 5.96309 12.6313 3.73404 10.0256 3.73404C7.41998 3.73404 5.30768 5.96309 5.30768 8.71276C5.30768 11.4624 7.41998 13.6915 10.0256 13.6915Z" stroke="white" stroke-width="2" stroke-linecap="round" stroke-linejoin="round"/>
<path d="M20.0513 13.6915L22.4102 16.1808L27.1282 11.2021" stroke="white" stroke-width="2" stroke-linecap="round" stroke-linejoin="round"/>
</g>
<defs>
<clipPath id="clip0_9_157">
<rect width="28.3077" height="29.8723" fill="white"/>
</clipPath>
</defs>
</svg>
