<svg width="19" height="20" viewBox="0 0 19 20" fill="none" xmlns="http://www.w3.org/2000/svg">
<path d="M13.2051 19V15.6871C13.2378 15.2789 13.1817 14.8685 13.0404 14.4833C12.8991 14.0981 12.6759 13.7468 12.3856 13.4528C15.1231 13.1532 18 12.1345 18 7.46044C17.9998 6.26524 17.5316 5.11588 16.6923 4.25025C17.0897 3.20459 17.0616 2.04878 16.6138 1.02294C16.6138 1.02294 15.5851 0.723318 13.2051 2.28989C11.207 1.75813 9.10071 1.75813 7.10256 2.28989C4.72256 0.723318 3.69385 1.02294 3.69385 1.02294C3.24607 2.04878 3.21797 3.20459 3.61538 4.25025C2.76985 5.12231 2.30117 6.28205 2.30769 7.48612C2.30769 12.1259 5.18461 13.1446 7.92205 13.4785C7.63523 13.7695 7.41402 14.1166 7.27283 14.4971C7.13164 14.8776 7.07363 15.2831 7.10256 15.6871V19M7.10256 16.4318C2.74359 17.7159 2.74359 14.2917 1 13.8637L7.10256 16.4318Z" stroke="white" stroke-width="2" stroke-linecap="round" stroke-linejoin="round"/>
</svg>
