<svg width="85" height="21" viewBox="0 0 85 21" fill="none" xmlns="http://www.w3.org/2000/svg">
<path d="M83.758 19.6446C83.8102 19.645 83.8619 19.6346 83.91 19.6141C83.9581 19.5935 84.0015 19.5632 84.0375 19.525C84.0736 19.4868 84.1015 19.4414 84.1195 19.3918C84.1375 19.3421 84.1453 19.2893 84.1422 19.2365C84.1422 18.9473 83.9698 18.8091 83.6159 18.8091H83.0444V20.3237H83.2594V19.6635H83.5236L83.5297 19.6715L83.9395 20.3237H84.1695L83.7285 19.6486L83.758 19.6446ZM83.5093 19.4927H83.26V18.9807H83.5759C83.7391 18.9807 83.9253 19.0077 83.9253 19.224C83.9253 19.4729 83.737 19.4927 83.508 19.4927" fill="white"/>
<path d="M0 3.08203H3.17351V14.7833H9.0486V17.7479H0V3.08203Z" fill="white"/>
<path d="M10.4516 7.80372H13.5003V17.7421H10.4516V7.80372ZM11.976 2.86279C12.3258 2.86287 12.6677 2.96791 12.9585 3.16467C13.2493 3.36141 13.4759 3.64103 13.6097 3.96817C13.7435 4.2953 13.7785 4.65525 13.7102 5.00249C13.6419 5.34975 13.4735 5.6687 13.2261 5.91904C12.9788 6.16937 12.6636 6.33984 12.3206 6.40889C11.9775 6.47794 11.6219 6.44248 11.2988 6.30697C10.9757 6.17146 10.6995 5.94201 10.5052 5.6476C10.3108 5.3532 10.2071 5.0071 10.2071 4.65303C10.2071 4.41792 10.2529 4.18509 10.3418 3.96787C10.4307 3.75064 10.561 3.55327 10.7252 3.38703C10.8895 3.22078 11.0845 3.08892 11.2991 2.99899C11.5137 2.90904 11.7437 2.86275 11.976 2.86279Z" fill="white"/>
<path d="M26.2533 3.07959H29.3021V11.8443L32.7573 7.79932H36.4951L32.4938 12.4005L36.411 17.7465H32.5792L29.3427 12.8338H29.3027V17.7457H26.254L26.2533 3.07959Z" fill="white"/>
<path d="M15.1908 7.80519H18.1185V9.16336H18.16C18.4525 8.65623 18.8755 8.239 19.3839 7.95625C19.8924 7.6735 20.4671 7.53583 21.0469 7.55797C24.1384 7.55797 24.7075 9.61696 24.7075 12.2919V17.742H21.6587V12.91C21.6587 11.7566 21.6378 10.274 20.0709 10.274C18.4862 10.274 18.2417 11.53 18.2417 12.8261V17.7407H15.193L15.1908 7.80519Z" fill="white"/>
<path d="M42.9155 11.6168C42.9214 11.3665 42.8769 11.1175 42.7848 10.885C42.6929 10.6525 42.5552 10.4414 42.3801 10.2644C42.2052 10.0873 41.9965 9.94811 41.7668 9.85513C41.5371 9.76215 41.2911 9.71733 41.0438 9.7234C40.511 9.68984 39.9867 9.86954 39.5836 10.2237C39.1807 10.5779 38.9313 11.0782 38.8894 11.6168H42.9155ZM45.498 16.0209C44.9914 16.6427 44.3544 17.1428 43.6334 17.4848C42.9123 17.8267 42.1251 18.0022 41.3289 17.9982C38.2803 17.9982 35.8393 15.9383 35.8393 12.7484C35.8393 9.55849 38.28 7.49951 41.3289 7.49951C44.1785 7.49951 45.9655 9.55689 45.9655 12.7484V13.716H38.8894C38.9774 14.2648 39.2585 14.7628 39.6807 15.1183C40.1029 15.4739 40.6379 15.663 41.187 15.6509C41.6209 15.6481 42.0473 15.5357 42.4272 15.3235C42.8073 15.1115 43.1289 14.8064 43.3627 14.4364L45.498 16.0209Z" fill="white"/>
<path d="M52.3201 10.2061C50.7958 10.2061 49.8811 11.2364 49.8811 12.7377C49.8811 14.2389 50.7954 15.2701 52.3201 15.2701C53.8447 15.2701 54.7613 14.2415 54.7613 12.7377C54.7613 11.2338 53.8463 10.2061 52.3201 10.2061ZM57.568 17.7404H54.7613V16.4223H54.7197C54.3676 16.9017 53.9109 17.2924 53.3852 17.5638C52.8595 17.8352 52.2789 17.9801 51.6888 17.9873C48.7594 17.9873 46.8299 15.8472 46.8299 12.8209C46.8299 10.0415 48.5374 7.48943 51.3446 7.48943C52.6062 7.48943 53.7848 7.83886 54.4761 8.80744H54.5161V3.07861H57.5678L57.568 17.7404Z" fill="white"/>
<path d="M78.1496 17.7463H75.101V12.9134C75.101 11.7609 75.0806 10.2774 73.5152 10.2774C71.9274 10.2774 71.6844 11.533 71.6844 12.8295V17.7459H68.6358V7.80754H71.5625V9.16573H71.6034C71.8963 8.6588 72.3196 8.24177 72.8281 7.95906C73.3367 7.67635 73.9114 7.53855 74.4911 7.56034C77.5811 7.56034 78.1509 9.61771 78.1509 12.2942L78.1496 17.7463ZM65.1959 6.44904C64.8459 6.4491 64.5038 6.34413 64.2129 6.1474C63.9219 5.95067 63.6951 5.67101 63.5611 5.34379C63.4271 5.01658 63.392 4.6565 63.4603 4.30908C63.5284 3.96168 63.6968 3.64254 63.9442 3.39204C64.1917 3.14154 64.5068 2.97092 64.8501 2.90175C65.1933 2.83258 65.549 2.86799 65.8723 3.00348C66.1955 3.13896 66.4719 3.36846 66.6664 3.66293C66.8608 3.95741 66.9646 4.30363 66.9647 4.65783C66.9647 4.89301 66.9191 5.1259 66.8302 5.3432C66.7413 5.56049 66.611 5.75794 66.4468 5.92427C66.2824 6.0906 66.0875 6.22255 65.8728 6.31259C65.6582 6.40262 65.4281 6.449 65.1959 6.44904ZM66.7201 17.7463H63.6683V7.80754H66.7201V17.7463ZM79.6695 0.001419H62.1363C61.7384 -0.00312694 61.3549 0.152441 61.0702 0.433939C60.7855 0.715436 60.6228 1.09983 60.618 1.50265V19.3244C60.6227 19.7273 60.7852 20.112 61.0699 20.3938C61.3546 20.6757 61.7382 20.8314 62.1363 20.8272H79.6695C80.0684 20.8323 80.4531 20.6768 80.7389 20.3951C81.0247 20.1132 81.1883 19.7282 81.1939 19.3244V1.50137C81.1881 1.09775 81.0245 0.712915 80.7386 0.431423C80.4528 0.149933 80.0683 -0.00519072 79.6695 0.00013262" fill="white"/>
<path d="M83.5353 18.1343C83.1644 18.1378 82.81 18.29 82.5495 18.5573C82.2892 18.8248 82.144 19.1857 82.1457 19.5613C82.1476 19.9368 82.2961 20.2963 82.559 20.5611C82.822 20.8259 83.1778 20.9747 83.5488 20.9747C83.9198 20.9747 84.2756 20.8259 84.5386 20.5611C84.8015 20.2963 84.95 19.9368 84.9519 19.5613C84.9536 19.1857 84.8084 18.8248 84.5481 18.5573C84.2876 18.29 83.9332 18.1378 83.5623 18.1343H83.5353ZM83.5353 20.8121C83.2921 20.8162 83.0529 20.747 82.8485 20.6137C82.6439 20.4803 82.483 20.2885 82.3862 20.0625C82.2893 19.8366 82.2608 19.5866 82.3043 19.3443C82.3478 19.1019 82.4614 18.878 82.6305 18.701C82.7996 18.5239 83.0169 18.4017 83.2548 18.3497C83.4926 18.2976 83.7404 18.318 83.9666 18.4084C84.1929 18.499 84.3877 18.6553 84.5263 18.8578C84.6648 19.0603 84.7408 19.2998 84.745 19.5461C84.745 19.5532 84.745 19.5599 84.745 19.5669C84.7518 19.8901 84.6315 20.2026 84.4108 20.436C84.1899 20.6693 83.8865 20.8043 83.5674 20.8113H83.5357" fill="white"/>
</svg>
