<svg width="58" height="17" viewBox="0 0 58 17" fill="none" xmlns="http://www.w3.org/2000/svg">
<path d="M24.0219 14.0801H23.996C24.0076 14.0801 24.0154 14.0942 24.0272 14.0956H24.0349L24.0219 14.0815V14.0801ZM24.0272 14.0956C23.9066 14.097 23.6032 14.1657 23.283 14.1657C22.2718 14.1657 21.9218 13.6603 21.9218 13.0006V8.60533H23.983C24.0997 8.60533 24.1905 8.49304 24.1905 8.33862V5.95217C24.1905 5.82583 24.0867 5.71352 23.983 5.71352H21.9218V2.75153C21.9218 2.63923 21.857 2.56903 21.7403 2.56903H18.9401C18.8234 2.56903 18.7586 2.63923 18.7586 2.75153V5.79776C18.7586 5.79776 17.3456 6.17677 17.2548 6.19081C17.1511 6.21889 17.0862 6.31715 17.0862 6.42946V8.33862C17.0862 8.49304 17.19 8.60533 17.3067 8.60533H18.7457V13.2097C18.7457 16.635 20.9494 16.986 22.4533 16.986C23.1404 16.986 23.97 16.7474 24.0997 16.6771C24.1775 16.649 24.2164 16.5508 24.2164 16.4526V14.3468C24.2182 14.2871 24.2 14.2286 24.1653 14.1823C24.1305 14.1359 24.0814 14.1046 24.0272 14.0942V14.0956ZM54.7461 11.0058C54.7461 8.46495 53.7998 8.12804 52.8016 8.24035C52.0237 8.2965 51.4014 8.71764 51.4014 8.71764V13.659C51.4014 13.659 52.0367 14.1363 52.983 14.1643C54.3183 14.2065 54.7461 13.687 54.7461 11.0058ZM57.8963 10.7812C57.8963 15.5962 56.4573 16.9719 53.9424 16.9719C51.8162 16.9719 50.6754 15.8068 50.6754 15.8068C50.6754 15.8068 50.6236 16.4526 50.5588 16.5368C50.52 16.6209 50.4551 16.649 50.3774 16.649H48.4587C48.329 16.649 48.2124 16.5367 48.2124 16.4104L48.2382 0.814296C48.2382 0.687956 48.342 0.575652 48.4587 0.575652H51.22C51.3367 0.575652 51.4403 0.687956 51.4403 0.814296V6.10659C51.4403 6.10659 52.5034 5.36258 54.0591 5.36258L54.0461 5.33451C55.6017 5.33451 57.8963 5.96621 57.8963 10.7812ZM46.5919 5.71352H43.8695C43.7269 5.71352 43.6491 5.82583 43.6491 5.98025V13.6169C43.6491 13.6169 42.9361 14.1643 41.9638 14.1643C40.9915 14.1643 40.7063 13.687 40.7063 12.6342V5.96621C40.7063 5.83987 40.6026 5.72756 40.486 5.72756H37.7117C37.595 5.72756 37.4913 5.83987 37.4913 5.96621V13.1396C37.4913 16.2279 39.0859 17 41.2767 17C43.0787 17 44.5436 15.9191 44.5436 15.9191C44.5436 15.9191 44.6084 16.4665 44.6474 16.5508C44.6732 16.6209 44.764 16.6771 44.8547 16.6771H46.5919C46.7345 16.6771 46.8123 16.5648 46.8123 16.4385L46.8382 5.95217C46.8382 5.82583 46.7345 5.71352 46.5919 5.71352ZM15.8677 5.69949H13.1064C12.9897 5.69949 12.886 5.82583 12.886 5.98025V16.2841C12.886 16.5648 13.0546 16.6631 13.2749 16.6631H15.764C16.0233 16.6631 16.088 16.5368 16.088 16.2841V5.93814C16.088 5.81179 15.9843 5.69949 15.8677 5.69949ZM14.5065 0.954675C13.5082 0.954675 12.7175 1.81098 12.7175 2.8919C12.7175 3.97283 13.5082 4.82913 14.5065 4.82913C15.4788 4.82913 16.2695 3.97283 16.2695 2.8919C16.2695 1.81098 15.4788 0.954675 14.5065 0.954675ZM35.8838 0.603728H33.1484C33.0318 0.603728 32.9281 0.716031 32.9281 0.842372V6.58388H28.6371V0.842372C28.6371 0.716031 28.5333 0.603728 28.4166 0.603728H25.6554C25.5386 0.603728 25.435 0.716031 25.435 0.842372V16.4385C25.435 16.5648 25.5516 16.6771 25.6554 16.6771H28.4166C28.5333 16.6771 28.6371 16.5648 28.6371 16.4385V9.77048H32.9281L32.9021 16.4385C32.9021 16.5648 33.0058 16.6771 33.1225 16.6771H35.8838C36.0004 16.6771 36.1041 16.5648 36.1041 16.4385V0.842372C36.1041 0.716031 36.0004 0.603728 35.8838 0.603728ZM11.4211 7.51038V15.5681C11.4211 15.6243 11.4081 15.7225 11.3434 15.7506C11.3434 15.7506 9.72285 17 7.05231 17C3.82432 17 0 15.905 0 8.68956C0 1.47408 3.34466 -0.0139399 6.61153 9.79689e-05C9.43765 9.79689e-05 10.5785 0.687956 10.7599 0.814296C10.8118 0.884486 10.8377 0.940637 10.8377 1.01083L10.2933 3.50958C10.2933 3.63591 10.1766 3.79033 10.034 3.74822C9.56729 3.5938 8.86724 3.28497 7.22084 3.28497C5.31515 3.28497 3.26687 3.87456 3.26687 8.52111C3.26687 13.1677 5.21144 13.7151 6.61153 13.7151C7.80421 13.7151 8.23201 13.5607 8.23201 13.5607V10.332H6.32633C6.18373 10.332 6.08002 10.2197 6.08002 10.0933V7.51038C6.08002 7.38403 6.18373 7.27173 6.32633 7.27173H11.1748C11.3174 7.27173 11.4211 7.38403 11.4211 7.51038Z" fill="white"/>
</svg>
